<?xml version="1.0" encoding="UTF-8" standalone="no"?>
<!-- Ājñā-chakra image created by Holger Koch http://www.premaloka.de/kontakt License: public domain -->

<svg
   xmlns:dc="http://purl.org/dc/elements/1.1/"
   xmlns:cc="http://creativecommons.org/ns#"
   xmlns:rdf="http://www.w3.org/1999/02/22-rdf-syntax-ns#"
   xmlns:svg="http://www.w3.org/2000/svg"
   xmlns="http://www.w3.org/2000/svg"
   xmlns:xlink="http://www.w3.org/1999/xlink"
   xmlns:sodipodi="http://sodipodi.sourceforge.net/DTD/sodipodi-0.dtd"
   xmlns:inkscape="http://www.inkscape.org/namespaces/inkscape"
   version="1.1"
   width="770px"
   height="700px"
   id="svg5267"
   inkscape:version="0.48.4 r9939"
   sodipodi:docname="chakra6.svg">
  <metadata
     id="metadata5306">
    <rdf:RDF>
      <cc:Work
         rdf:about="">
        <dc:format>image/svg+xml</dc:format>
        <dc:type
           rdf:resource="http://purl.org/dc/dcmitype/StillImage" />
        <dc:title>Ājñā Chakra</dc:title>
      </cc:Work>
    </rdf:RDF>
  </metadata>
  <sodipodi:namedview
     pagecolor="#ffffff"
     bordercolor="#666666"
     borderopacity="1"
     objecttolerance="10"
     gridtolerance="10"
     guidetolerance="10"
     inkscape:pageopacity="0"
     inkscape:pageshadow="2"
     inkscape:window-width="640"
     inkscape:window-height="480"
     id="namedview5304"
     showgrid="false"
     inkscape:zoom="0.33714286"
     inkscape:cx="385"
     inkscape:cy="350"
     inkscape:window-x="0"
     inkscape:window-y="0"
     inkscape:window-maximized="0"
     inkscape:current-layer="svg5267" />
  <title
     id="title5269">Ājñā Chakra</title>
  <defs
     id="defs5271">
    <filter
       id="blur"
       x="-40%"
       y="-40%"
       width="200%"
       height="200%">
      <feGaussianBlur
         in="SourceGraphic"
         stdDeviation="14"
         id="feGaussianBlur5274" />
    </filter>
    <radialGradient
       id="grad1"
       gradientUnits="userSpaceOnUse"
       cx="385"
       cy="350"
       r="350">
      <stop
         offset="65%"
         stop-color="#b196e9"
         id="stop5277" />
      <stop
         offset="87%"
         stop-color="#5a28bd"
         id="stop5279" />
    </radialGradient>
    <path
       id="petal1"
       stroke-linejoin="round"
       stroke-width="4"
       stroke="#3c1b7e"
       fill="url(#grad1)"
       d="M 224.13320728006 189.13320728006 C 224.13320728006,81.33320728006 385,30.1 385,-31.5 C 385,30.1 545.86679271994,81.33320728006 545.86679271994,189.13320728006 L 350 350 Z" />
  </defs>
  <use
     xlink:href="#petal1"
     transform="rotate(90 385 350)"
     id="use5282" />
  <use
     xlink:href="#petal1"
     transform="rotate(270 385 350)"
     id="use5284" />
  <path
     style="fill:#642dd2;stroke:#3c1b7e;stroke-width:7"
     d="M 612.5,350 C 612.5,475.64478 510.64478,577.5 385,577.5 259.35522,577.5 157.5,475.64478 157.5,350 157.5,224.35522 259.35522,122.5 385,122.5 c 125.64478,0 227.5,101.85522 227.5,227.5 z"
     id="circle5286" />
  <path
     transform="rotate(60 385 350)"
     style="fill:none;stroke:#3c1b7e;stroke-width:4;stroke-linejoin:round"
     d="m 385,122.5 197.02078,341.25 -394.04156,0 z"
     id="polygon5288" />
  <g
     style="font-size:245px;fill:#ffffff;stroke:#efeafb;stroke-width:7;filter:url(#blur);font-family:Sanskrit 2003"
     id="text5290">
    <path
       d="m 400.45703,267.52881 -14.35547,12.4414 -16.26953,-11.12548 15.3125,-12.44141 15.3125,11.12549 m 26.55762,17.70508 c -10.44773,11.80352 -20.81556,17.70521 -31.10352,17.70507 -6.69933,1.4e-4 -13.75743,-2.31268 -21.17431,-6.93847 -5.26377,-3.26971 -13.03964,-9.45053 -23.32764,-18.54248 l -0.59814,-1.91406 2.39257,-0.95704 c 8.85246,10.12874 18.42276,15.19302 28.71094,15.19288 12.04253,1.4e-4 22.60974,-7.89536 31.70166,-23.68653 2.7912,5.26384 5.06415,8.97233 6.81885,11.12549 l 6.57959,8.01514 m 51.79931,69.1455 c -2e-4,13.95678 -2.19339,25.5209 -6.57959,34.69239 -5.66262,11.80342 -14.35564,17.70511 -26.0791,17.70508 -9.88948,-1.11651 -16.42919,-6.42005 -19.61914,-15.91065 -1.43569,-4.22684 -2.99087,-12.80023 -4.66552,-25.72021 l -8.2544,5.86181 c -2.31296,2.07364 -5.2638,3.11042 -8.85254,3.11035 -8.21464,7e-5 -17.98432,-6.9384 -29.30908,-20.81543 -2.23317,4.38648 -5.5429,8.09497 -9.9292,11.12549 21.77235,9.41087 32.65857,22.84917 32.65869,40.31494 -1.2e-4,9.8096 -3.66874,17.82473 -11.00586,24.04541 -6.85882,5.9017 -15.31259,8.85254 -25.36133,8.85254 -12.60098,0 -23.72646,-3.70849 -33.37646,-11.12549 -7.57654,-5.82192 -15.15303,-14.99346 -22.72949,-27.51464 -4.38642,-7.3372 -10.32798,-19.06082 -17.82471,-35.1709 l -1.31592,-4.5459 1.07666,0.95703 c 1.27603,0.87736 2.19319,2.07364 2.75147,3.58887 l 15.3125,28.35205 c 10.12854,18.74189 23.36746,28.11281 39.71679,28.11279 9.09172,2e-5 16.3492,-2.19317 21.77247,-6.57959 5.90159,-4.78513 8.85244,-11.64384 8.85253,-20.57617 -9e-5,-11.0058 -3.94784,-19.65895 -11.84326,-25.95947 l -10.16845,5.02441 c -6.14103,3.03066 -11.96296,4.9846 -17.46582,5.86182 l -5.98145,-11.24512 -5.14404,-10.88623 c 13.23887,-1.43546 22.76929,-4.14705 28.59131,-8.13477 7.73591,-5.34332 12.99958,-14.51486 15.79101,-27.51464 l 0.35889,-3.58887 c -1e-4,-7.41686 -4.46624,-11.12536 -13.39844,-11.12549 -8.61335,1.11667 -15.87083,3.54912 -21.77246,7.29736 -4.94472,3.11048 -10.60714,8.33427 -16.98731,15.67139 -2.39261,-1.11643 -5.1042,-3.58875 -8.13476,-7.41699 l -8.37402,-10.64697 c 12.0426,-12.44127 25.68028,-18.66197 40.91308,-18.66211 11.96281,1.4e-4 21.25398,4.42641 27.87354,13.27881 5.98134,7.89563 8.97206,18.0242 8.97216,30.38574 l -0.71777,6.69922 -0.95703,7.0581 c -1e-4,1.9939 0.91705,3.70858 2.75146,5.14404 2.79124,2.23316 5.58258,3.34969 8.37403,3.34961 7.65613,8e-5 13.87683,-6.02123 18.66211,-18.06396 7.73586,-19.37977 12.32163,-30.38561 13.75732,-33.01758 5.9813,-10.76646 13.43816,-16.66815 22.37061,-17.70508 7.81558,1.5e-4 15.35219,5.54295 22.60986,16.62842 8.45358,12.92004 12.68046,29.18956 12.68066,48.80859 m -10.28808,-17.70507 c 0.31882,-21.53308 -4.30683,-32.29967 -13.87695,-32.29981 -6.93865,1.43568 -14.15625,12.04277 -21.65284,31.82129 -3.27001,8.61338 -4.90493,16.42912 -4.90478,23.44727 -1.5e-4,10.04889 3.86784,16.70823 11.604,19.97802 10.12841,6e-5 17.58527,-3.5888 22.37061,-10.7666 3.11016,-4.62558 5.2236,-12.28182 6.34033,-22.96875 l 0.11963,-9.21142"
       style="font-size:245px;fill:#ffffff;stroke:#efeafb;stroke-width:7;filter:url(#blur);font-family:Sanskrit 2003"
       id="path5335" />
  </g>
  <g
     style="font-size:245px;stroke:#d0c0f2;stroke-width:4;font-family:Sanskrit 2003"
     id="text5292">
    <path
       d="m 400.45703,267.52881 -14.35547,12.4414 -16.26953,-11.12548 15.3125,-12.44141 15.3125,11.12549 m 26.55762,17.70508 c -10.44773,11.80352 -20.81556,17.70521 -31.10352,17.70507 -6.69933,1.4e-4 -13.75743,-2.31268 -21.17431,-6.93847 -5.26377,-3.26971 -13.03964,-9.45053 -23.32764,-18.54248 l -0.59814,-1.91406 2.39257,-0.95704 c 8.85246,10.12874 18.42276,15.19302 28.71094,15.19288 12.04253,1.4e-4 22.60974,-7.89536 31.70166,-23.68653 2.7912,5.26384 5.06415,8.97233 6.81885,11.12549 l 6.57959,8.01514 m 51.79931,69.1455 c -2e-4,13.95678 -2.19339,25.5209 -6.57959,34.69239 -5.66262,11.80342 -14.35564,17.70511 -26.0791,17.70508 -9.88948,-1.11651 -16.42919,-6.42005 -19.61914,-15.91065 -1.43569,-4.22684 -2.99087,-12.80023 -4.66552,-25.72021 l -8.2544,5.86181 c -2.31296,2.07364 -5.2638,3.11042 -8.85254,3.11035 -8.21464,7e-5 -17.98432,-6.9384 -29.30908,-20.81543 -2.23317,4.38648 -5.5429,8.09497 -9.9292,11.12549 21.77235,9.41087 32.65857,22.84917 32.65869,40.31494 -1.2e-4,9.8096 -3.66874,17.82473 -11.00586,24.04541 -6.85882,5.9017 -15.31259,8.85254 -25.36133,8.85254 -12.60098,0 -23.72646,-3.70849 -33.37646,-11.12549 -7.57654,-5.82192 -15.15303,-14.99346 -22.72949,-27.51464 -4.38642,-7.3372 -10.32798,-19.06082 -17.82471,-35.1709 l -1.31592,-4.5459 1.07666,0.95703 c 1.27603,0.87736 2.19319,2.07364 2.75147,3.58887 l 15.3125,28.35205 c 10.12854,18.74189 23.36746,28.11281 39.71679,28.11279 9.09172,2e-5 16.3492,-2.19317 21.77247,-6.57959 5.90159,-4.78513 8.85244,-11.64384 8.85253,-20.57617 -9e-5,-11.0058 -3.94784,-19.65895 -11.84326,-25.95947 l -10.16845,5.02441 c -6.14103,3.03066 -11.96296,4.9846 -17.46582,5.86182 l -5.98145,-11.24512 -5.14404,-10.88623 c 13.23887,-1.43546 22.76929,-4.14705 28.59131,-8.13477 7.73591,-5.34332 12.99958,-14.51486 15.79101,-27.51464 l 0.35889,-3.58887 c -1e-4,-7.41686 -4.46624,-11.12536 -13.39844,-11.12549 -8.61335,1.11667 -15.87083,3.54912 -21.77246,7.29736 -4.94472,3.11048 -10.60714,8.33427 -16.98731,15.67139 -2.39261,-1.11643 -5.1042,-3.58875 -8.13476,-7.41699 l -8.37402,-10.64697 c 12.0426,-12.44127 25.68028,-18.66197 40.91308,-18.66211 11.96281,1.4e-4 21.25398,4.42641 27.87354,13.27881 5.98134,7.89563 8.97206,18.0242 8.97216,30.38574 l -0.71777,6.69922 -0.95703,7.0581 c -1e-4,1.9939 0.91705,3.70858 2.75146,5.14404 2.79124,2.23316 5.58258,3.34969 8.37403,3.34961 7.65613,8e-5 13.87683,-6.02123 18.66211,-18.06396 7.73586,-19.37977 12.32163,-30.38561 13.75732,-33.01758 5.9813,-10.76646 13.43816,-16.66815 22.37061,-17.70508 7.81558,1.5e-4 15.35219,5.54295 22.60986,16.62842 8.45358,12.92004 12.68046,29.18956 12.68066,48.80859 m -10.28808,-17.70507 c 0.31882,-21.53308 -4.30683,-32.29967 -13.87695,-32.29981 -6.93865,1.43568 -14.15625,12.04277 -21.65284,31.82129 -3.27001,8.61338 -4.90493,16.42912 -4.90478,23.44727 -1.5e-4,10.04889 3.86784,16.70823 11.604,19.97802 10.12841,6e-5 17.58527,-3.5888 22.37061,-10.7666 3.11016,-4.62558 5.2236,-12.28182 6.34033,-22.96875 l 0.11963,-9.21142"
       style="font-size:245px;stroke:#d0c0f2;stroke-width:4;font-family:Sanskrit 2003"
       id="path5332" />
  </g>
  <g
     style="font-size:245px;fill:#1e0d3f;font-family:Sanskrit 2003"
     id="text5294">
    <path
       d="m 400.45703,267.52881 -14.35547,12.4414 -16.26953,-11.12548 15.3125,-12.44141 15.3125,11.12549 m 26.55762,17.70508 c -10.44773,11.80352 -20.81556,17.70521 -31.10352,17.70507 -6.69933,1.4e-4 -13.75743,-2.31268 -21.17431,-6.93847 -5.26377,-3.26971 -13.03964,-9.45053 -23.32764,-18.54248 l -0.59814,-1.91406 2.39257,-0.95704 c 8.85246,10.12874 18.42276,15.19302 28.71094,15.19288 12.04253,1.4e-4 22.60974,-7.89536 31.70166,-23.68653 2.7912,5.26384 5.06415,8.97233 6.81885,11.12549 l 6.57959,8.01514 m 51.79931,69.1455 c -2e-4,13.95678 -2.19339,25.5209 -6.57959,34.69239 -5.66262,11.80342 -14.35564,17.70511 -26.0791,17.70508 -9.88948,-1.11651 -16.42919,-6.42005 -19.61914,-15.91065 -1.43569,-4.22684 -2.99087,-12.80023 -4.66552,-25.72021 l -8.2544,5.86181 c -2.31296,2.07364 -5.2638,3.11042 -8.85254,3.11035 -8.21464,7e-5 -17.98432,-6.9384 -29.30908,-20.81543 -2.23317,4.38648 -5.5429,8.09497 -9.9292,11.12549 21.77235,9.41087 32.65857,22.84917 32.65869,40.31494 -1.2e-4,9.8096 -3.66874,17.82473 -11.00586,24.04541 -6.85882,5.9017 -15.31259,8.85254 -25.36133,8.85254 -12.60098,0 -23.72646,-3.70849 -33.37646,-11.12549 -7.57654,-5.82192 -15.15303,-14.99346 -22.72949,-27.51464 -4.38642,-7.3372 -10.32798,-19.06082 -17.82471,-35.1709 l -1.31592,-4.5459 1.07666,0.95703 c 1.27603,0.87736 2.19319,2.07364 2.75147,3.58887 l 15.3125,28.35205 c 10.12854,18.74189 23.36746,28.11281 39.71679,28.11279 9.09172,2e-5 16.3492,-2.19317 21.77247,-6.57959 5.90159,-4.78513 8.85244,-11.64384 8.85253,-20.57617 -9e-5,-11.0058 -3.94784,-19.65895 -11.84326,-25.95947 l -10.16845,5.02441 c -6.14103,3.03066 -11.96296,4.9846 -17.46582,5.86182 l -5.98145,-11.24512 -5.14404,-10.88623 c 13.23887,-1.43546 22.76929,-4.14705 28.59131,-8.13477 7.73591,-5.34332 12.99958,-14.51486 15.79101,-27.51464 l 0.35889,-3.58887 c -1e-4,-7.41686 -4.46624,-11.12536 -13.39844,-11.12549 -8.61335,1.11667 -15.87083,3.54912 -21.77246,7.29736 -4.94472,3.11048 -10.60714,8.33427 -16.98731,15.67139 -2.39261,-1.11643 -5.1042,-3.58875 -8.13476,-7.41699 l -8.37402,-10.64697 c 12.0426,-12.44127 25.68028,-18.66197 40.91308,-18.66211 11.96281,1.4e-4 21.25398,4.42641 27.87354,13.27881 5.98134,7.89563 8.97206,18.0242 8.97216,30.38574 l -0.71777,6.69922 -0.95703,7.0581 c -1e-4,1.9939 0.91705,3.70858 2.75146,5.14404 2.79124,2.23316 5.58258,3.34969 8.37403,3.34961 7.65613,8e-5 13.87683,-6.02123 18.66211,-18.06396 7.73586,-19.37977 12.32163,-30.38561 13.75732,-33.01758 5.9813,-10.76646 13.43816,-16.66815 22.37061,-17.70508 7.81558,1.5e-4 15.35219,5.54295 22.60986,16.62842 8.45358,12.92004 12.68046,29.18956 12.68066,48.80859 m -10.28808,-17.70507 c 0.31882,-21.53308 -4.30683,-32.29967 -13.87695,-32.29981 -6.93865,1.43568 -14.15625,12.04277 -21.65284,31.82129 -3.27001,8.61338 -4.90493,16.42912 -4.90478,23.44727 -1.5e-4,10.04889 3.86784,16.70823 11.604,19.97802 10.12841,6e-5 17.58527,-3.5888 22.37061,-10.7666 3.11016,-4.62558 5.2236,-12.28182 6.34033,-22.96875 l 0.11963,-9.21142"
       style="font-size:245px;fill:#1e0d3f;font-family:Sanskrit 2003"
       id="path5329" />
  </g>
  <g
     style="font-size:70px;stroke:#1e0d3f;stroke-width:2;font-family:Sanskrit 2003"
     id="text5296">
    <path
       d="m 130.1709,335.04395 -9.53613,0 c -3e-5,1.11657 0.1253,2.71162 0.37597,4.78515 l 0.41016,3.38379 c -3e-5,0.59248 -0.0684,1.09378 -0.20508,1.50391 -0.0456,0.11396 -0.15953,0.25068 -0.3418,0.41015 l -2.35839,0.30762 -1.94825,0.0684 -6.49414,-0.41016 c -1.48113,-0.0911 -2.84832,0.13675 -4.10156,0.6836 -1.57228,0.70641 -2.35841,1.74319 -2.3584,3.11035 -1e-5,0.7064 0.21646,1.41278 0.64942,2.11914 l 1.26464,0 c 0.18228,-0.0455 0.50129,-0.1253 0.95704,-0.23926 2.36977,-0.4557 4.10154,-0.68357 5.19531,-0.68359 2.87107,2e-5 5.40037,0.76337 7.58789,2.29004 2.23304,1.59507 3.75974,3.74839 4.58008,6.45996 0.2734,0.91147 0.41012,1.84572 0.41015,2.80273 -3e-5,2.11915 -0.75198,3.83953 -2.25586,5.16113 -0.79755,0.70639 -1.56089,1.05958 -2.29004,1.05958 -0.5469,0 -1.10516,-0.12532 -1.6748,-0.37598 l -1.70898,-0.75195 -4.64844,-1.23047 c -0.84312,-0.36458 -1.26467,-0.82031 -1.26465,-1.36719 l 0.20508,-0.58106 c 2.73435,-0.27342 4.56866,-0.6494 5.50293,-1.12793 1.93682,-1.00259 2.90525,-2.90525 2.90527,-5.708 -2e-5,-2.07355 -1.18492,-3.11033 -3.55469,-3.11035 -1.09377,2e-5 -2.47235,0.28485 -4.13574,0.85449 -5.12696,1.75457 -7.69044,4.42059 -7.69043,7.99804 -10e-6,4.42059 3.20149,7.63347 9.60449,9.63868 l 6.32325,1.98242 6.18652,1.23047 c 2.32418,0.45573 3.86227,0.90006 4.61426,1.333 0.88863,0.5013 1.34436,1.00261 1.36718,1.50391 0.0228,0.70638 -0.82034,1.05957 -2.52929,1.05957 -4.12438,-0.6836 -8.38545,-1.72038 -12.78321,-3.11035 -8.0892,-2.55208 -13.58073,-5.50293 -16.474605,-8.85254 -1.708988,-1.98241 -2.563479,-4.55728 -2.563477,-7.72461 -2e-6,-1.4811 0.489906,-2.79132 1.469727,-3.93066 0.455725,-0.52407 1.652015,-1.56085 3.588865,-3.11035 -0.0456,-0.27342 -0.91146,-1.23045 -2.597654,-2.8711 -1.572269,-1.52666 -2.358401,-3.09893 -2.358399,-4.71679 -2e-6,-3.07614 2.905273,-4.53448 8.715823,-4.375 l 4.68261,0.13671 c 3.07616,0.0912 4.71678,-0.69495 4.92188,-2.35839 l 0,-3.24707 -20.81543,0 0,-5.33204 35.1709,0 0,5.33204"
       style="font-size:70px;stroke:#1e0d3f;stroke-width:2;font-family:Sanskrit 2003"
       id="path5324" />
    <path
       d="m 123.19824,321.9873 -2.1875,2.66602 -1.77734,1.98242 c -0.50129,0.27349 -0.88866,0.41021 -1.16211,0.41016 -0.36457,5e-5 -1.3216,-0.91141 -2.87109,-2.73438 l -2.15332,-2.46093 0,-1.26465 2.56347,-3.48633 c 0.63804,-0.86583 1.27606,-1.48106 1.91406,-1.8457 0.63804,6e-5 2.52931,1.7774 5.67383,5.33203 l 0.0684,0.71777 -0.0684,0.68359"
       style="font-size:70px;stroke:#1e0d3f;stroke-width:2;font-family:Sanskrit 2003"
       id="path5326" />
  </g>
  <g
     style="font-size:70px;fill:#efeafb;font-family:Sanskrit 2003"
     id="text5298">
    <path
       d="m 130.1709,335.04395 -9.53613,0 c -3e-5,1.11657 0.1253,2.71162 0.37597,4.78515 l 0.41016,3.38379 c -3e-5,0.59248 -0.0684,1.09378 -0.20508,1.50391 -0.0456,0.11396 -0.15953,0.25068 -0.3418,0.41015 l -2.35839,0.30762 -1.94825,0.0684 -6.49414,-0.41016 c -1.48113,-0.0911 -2.84832,0.13675 -4.10156,0.6836 -1.57228,0.70641 -2.35841,1.74319 -2.3584,3.11035 -1e-5,0.7064 0.21646,1.41278 0.64942,2.11914 l 1.26464,0 c 0.18228,-0.0455 0.50129,-0.1253 0.95704,-0.23926 2.36977,-0.4557 4.10154,-0.68357 5.19531,-0.68359 2.87107,2e-5 5.40037,0.76337 7.58789,2.29004 2.23304,1.59507 3.75974,3.74839 4.58008,6.45996 0.2734,0.91147 0.41012,1.84572 0.41015,2.80273 -3e-5,2.11915 -0.75198,3.83953 -2.25586,5.16113 -0.79755,0.70639 -1.56089,1.05958 -2.29004,1.05958 -0.5469,0 -1.10516,-0.12532 -1.6748,-0.37598 l -1.70898,-0.75195 -4.64844,-1.23047 c -0.84312,-0.36458 -1.26467,-0.82031 -1.26465,-1.36719 l 0.20508,-0.58106 c 2.73435,-0.27342 4.56866,-0.6494 5.50293,-1.12793 1.93682,-1.00259 2.90525,-2.90525 2.90527,-5.708 -2e-5,-2.07355 -1.18492,-3.11033 -3.55469,-3.11035 -1.09377,2e-5 -2.47235,0.28485 -4.13574,0.85449 -5.12696,1.75457 -7.69044,4.42059 -7.69043,7.99804 -10e-6,4.42059 3.20149,7.63347 9.60449,9.63868 l 6.32325,1.98242 6.18652,1.23047 c 2.32418,0.45573 3.86227,0.90006 4.61426,1.333 0.88863,0.5013 1.34436,1.00261 1.36718,1.50391 0.0228,0.70638 -0.82034,1.05957 -2.52929,1.05957 -4.12438,-0.6836 -8.38545,-1.72038 -12.78321,-3.11035 -8.0892,-2.55208 -13.58073,-5.50293 -16.474605,-8.85254 -1.708988,-1.98241 -2.563479,-4.55728 -2.563477,-7.72461 -2e-6,-1.4811 0.489906,-2.79132 1.469727,-3.93066 0.455725,-0.52407 1.652015,-1.56085 3.588865,-3.11035 -0.0456,-0.27342 -0.91146,-1.23045 -2.597654,-2.8711 -1.572269,-1.52666 -2.358401,-3.09893 -2.358399,-4.71679 -2e-6,-3.07614 2.905273,-4.53448 8.715823,-4.375 l 4.68261,0.13671 c 3.07616,0.0912 4.71678,-0.69495 4.92188,-2.35839 l 0,-3.24707 -20.81543,0 0,-5.33204 35.1709,0 0,5.33204"
       style="font-size:70px;fill:#efeafb;font-family:Sanskrit 2003"
       id="path5319" />
    <path
       d="m 123.19824,321.9873 -2.1875,2.66602 -1.77734,1.98242 c -0.50129,0.27349 -0.88866,0.41021 -1.16211,0.41016 -0.36457,5e-5 -1.3216,-0.91141 -2.87109,-2.73438 l -2.15332,-2.46093 0,-1.26465 2.56347,-3.48633 c 0.63804,-0.86583 1.27606,-1.48106 1.91406,-1.8457 0.63804,6e-5 2.52931,1.7774 5.67383,5.33203 l 0.0684,0.71777 -0.0684,0.68359"
       style="font-size:70px;fill:#efeafb;font-family:Sanskrit 2003"
       id="path5321" />
  </g>
  <g
     style="font-size:70px;stroke:#1e0d3f;stroke-width:2;font-family:Sanskrit 2003"
     id="text5300">
    <path
       d="m 656.96191,340.68359 c 0.63801,-0.88863 0.95702,-2.01656 0.95704,-3.38379 -2e-5,-2.50647 -1.24188,-3.75972 -3.72559,-3.75976 -1.64064,0.15955 -2.83693,0.67224 -3.58887,1.53808 -0.63803,0.72921 -1.11654,1.95968 -1.43554,3.69141 -10e-6,3.05342 1.29881,4.92191 3.89648,5.60547 0.95702,-0.15947 1.70897,-0.6266 2.25586,-1.40137 l 1.64062,-2.29004 m 17.12403,-5.63964 -6.83594,0 -4.34082,-5.33204 21.08887,0 0,5.33204 -3.93067,0 0,38.38378 c -4e-5,0.97982 -0.12536,1.5153 -0.37597,1.60645 -0.52413,-0.0228 -2.09639,-1.50391 -4.7168,-4.44336 -0.50134,-0.45572 -0.79756,-1.04817 -0.88867,-1.77734 l 0,-16.85059 c -1.93688,1.07099 -3.99906,1.60647 -6.18653,1.60645 -2.07359,2e-5 -3.93068,-0.37596 -5.57129,-1.12793 -1.13934,-0.52407 -2.76857,-1.60642 -4.88769,-3.24707 -2.64324,1.57229 -4.58009,3.03062 -5.81055,4.375 -1.75456,1.93686 -2.63184,4.12436 -2.63183,6.5625 -1e-5,1.34441 0.45572,2.44955 1.36718,3.31543 0.91145,0.86589 2.03938,1.29883 3.38379,1.29882 1.1621,1e-5 1.9938,-0.43293 2.49512,-1.29882 l 1.36719,-3.48633 c 0.68357,-1.27603 1.6406,-1.91405 2.87109,-1.91407 l 1.46973,0.1709 c 3.09893,0.84312 4.64841,2.40399 4.64844,4.68262 -3e-5,1.45834 -0.77477,2.97364 -2.32422,4.5459 l -1.50391,0.99121 c -0.47854,0.22787 -0.71779,0.53549 -0.71777,0.92285 -2e-5,0.36459 0.14809,0.78614 0.44433,1.26465 l 2.5293,4.10156 c 0.638,1.02539 1.19626,2.11914 1.6748,3.28125 l 0.23926,1.12793 c -2e-5,0.56966 -0.23928,1.03678 -0.71777,1.40137 -0.45575,0.38736 -0.97984,0.58105 -1.57227,0.58105 -1.41278,0 -2.42678,-0.78613 -3.04199,-2.35839 -0.3646,-0.95704 -0.92287,-2.73438 -1.6748,-5.33204 l -1.02539,-3.58886 c -2.91669,-0.56966 -5.03582,-1.15071 -6.35743,-1.74317 -1.45834,-0.6608 -3.07618,-1.77733 -4.85351,-3.34961 -2.84831,-2.52928 -4.27246,-5.49152 -4.27246,-8.88672 0,-3.87367 1.76594,-6.68779 5.29785,-8.44238 0.88866,-0.43291 1.36718,-0.86585 1.43555,-1.29883 -10e-6,-0.36455 -0.5241,-0.91142 -1.57227,-1.64062 -2.05079,-1.41273 -3.31543,-2.38115 -3.79394,-2.90527 -1.27605,-1.38994 -1.91407,-3.13311 -1.91407,-5.2295 0,-2.6204 0.82031,-4.4661 2.46094,-5.53711 1.1621,-0.7519 3.05338,-1.12788 5.67383,-1.12793 3.89647,5e-5 7.01821,1.53813 9.36523,4.61426 1.64061,2.16475 2.46092,4.23832 2.46094,6.22071 -2e-5,1.2305 -0.29625,2.47236 -0.88867,3.72558 -0.36461,0.75198 -1.10516,1.84573 -2.22168,3.28125 0.43292,0.41018 1.11652,0.82034 2.05078,1.23047 0.82029,0.27346 1.77732,0.41018 2.87109,0.41016 1.68618,2e-5 3.40655,-0.34177 5.16114,-1.02539 1.84567,-0.72914 3.26982,-1.69757 4.27246,-2.90528 l 0,-10.18554"
       style="font-size:70px;stroke:#1e0d3f;stroke-width:2;font-family:Sanskrit 2003"
       id="path5314" />
    <path
       d="m 681.53711,321.9873 -2.1875,2.66602 -1.77734,1.98242 c -0.5013,0.27349 -0.88867,0.41021 -1.16211,0.41016 -0.36458,5e-5 -1.32161,-0.91141 -2.8711,-2.73438 l -2.15332,-2.46093 0,-1.26465 2.56348,-3.48633 c 0.63803,-0.86583 1.27605,-1.48106 1.91406,-1.8457 0.63803,6e-5 2.52931,1.7774 5.67383,5.33203 l 0.0684,0.71777 -0.0684,0.68359"
       style="font-size:70px;stroke:#1e0d3f;stroke-width:2;font-family:Sanskrit 2003"
       id="path5316" />
  </g>
  <g
     style="font-size:70px;fill:#efeafb;font-family:Sanskrit 2003"
     id="text5302">
    <path
       d="m 656.96191,340.68359 c 0.63801,-0.88863 0.95702,-2.01656 0.95704,-3.38379 -2e-5,-2.50647 -1.24188,-3.75972 -3.72559,-3.75976 -1.64064,0.15955 -2.83693,0.67224 -3.58887,1.53808 -0.63803,0.72921 -1.11654,1.95968 -1.43554,3.69141 -10e-6,3.05342 1.29881,4.92191 3.89648,5.60547 0.95702,-0.15947 1.70897,-0.6266 2.25586,-1.40137 l 1.64062,-2.29004 m 17.12403,-5.63964 -6.83594,0 -4.34082,-5.33204 21.08887,0 0,5.33204 -3.93067,0 0,38.38378 c -4e-5,0.97982 -0.12536,1.5153 -0.37597,1.60645 -0.52413,-0.0228 -2.09639,-1.50391 -4.7168,-4.44336 -0.50134,-0.45572 -0.79756,-1.04817 -0.88867,-1.77734 l 0,-16.85059 c -1.93688,1.07099 -3.99906,1.60647 -6.18653,1.60645 -2.07359,2e-5 -3.93068,-0.37596 -5.57129,-1.12793 -1.13934,-0.52407 -2.76857,-1.60642 -4.88769,-3.24707 -2.64324,1.57229 -4.58009,3.03062 -5.81055,4.375 -1.75456,1.93686 -2.63184,4.12436 -2.63183,6.5625 -1e-5,1.34441 0.45572,2.44955 1.36718,3.31543 0.91145,0.86589 2.03938,1.29883 3.38379,1.29882 1.1621,1e-5 1.9938,-0.43293 2.49512,-1.29882 l 1.36719,-3.48633 c 0.68357,-1.27603 1.6406,-1.91405 2.87109,-1.91407 l 1.46973,0.1709 c 3.09893,0.84312 4.64841,2.40399 4.64844,4.68262 -3e-5,1.45834 -0.77477,2.97364 -2.32422,4.5459 l -1.50391,0.99121 c -0.47854,0.22787 -0.71779,0.53549 -0.71777,0.92285 -2e-5,0.36459 0.14809,0.78614 0.44433,1.26465 l 2.5293,4.10156 c 0.638,1.02539 1.19626,2.11914 1.6748,3.28125 l 0.23926,1.12793 c -2e-5,0.56966 -0.23928,1.03678 -0.71777,1.40137 -0.45575,0.38736 -0.97984,0.58105 -1.57227,0.58105 -1.41278,0 -2.42678,-0.78613 -3.04199,-2.35839 -0.3646,-0.95704 -0.92287,-2.73438 -1.6748,-5.33204 l -1.02539,-3.58886 c -2.91669,-0.56966 -5.03582,-1.15071 -6.35743,-1.74317 -1.45834,-0.6608 -3.07618,-1.77733 -4.85351,-3.34961 -2.84831,-2.52928 -4.27246,-5.49152 -4.27246,-8.88672 0,-3.87367 1.76594,-6.68779 5.29785,-8.44238 0.88866,-0.43291 1.36718,-0.86585 1.43555,-1.29883 -10e-6,-0.36455 -0.5241,-0.91142 -1.57227,-1.64062 -2.05079,-1.41273 -3.31543,-2.38115 -3.79394,-2.90527 -1.27605,-1.38994 -1.91407,-3.13311 -1.91407,-5.2295 0,-2.6204 0.82031,-4.4661 2.46094,-5.53711 1.1621,-0.7519 3.05338,-1.12788 5.67383,-1.12793 3.89647,5e-5 7.01821,1.53813 9.36523,4.61426 1.64061,2.16475 2.46092,4.23832 2.46094,6.22071 -2e-5,1.2305 -0.29625,2.47236 -0.88867,3.72558 -0.36461,0.75198 -1.10516,1.84573 -2.22168,3.28125 0.43292,0.41018 1.11652,0.82034 2.05078,1.23047 0.82029,0.27346 1.77732,0.41018 2.87109,0.41016 1.68618,2e-5 3.40655,-0.34177 5.16114,-1.02539 1.84567,-0.72914 3.26982,-1.69757 4.27246,-2.90528 l 0,-10.18554"
       style="font-size:70px;fill:#efeafb;font-family:Sanskrit 2003"
       id="path5309" />
    <path
       d="m 681.53711,321.9873 -2.1875,2.66602 -1.77734,1.98242 c -0.5013,0.27349 -0.88867,0.41021 -1.16211,0.41016 -0.36458,5e-5 -1.32161,-0.91141 -2.8711,-2.73438 l -2.15332,-2.46093 0,-1.26465 2.56348,-3.48633 c 0.63803,-0.86583 1.27605,-1.48106 1.91406,-1.8457 0.63803,6e-5 2.52931,1.7774 5.67383,5.33203 l 0.0684,0.71777 -0.0684,0.68359"
       style="font-size:70px;fill:#efeafb;font-family:Sanskrit 2003"
       id="path5311" />
  </g>
</svg>
